# xmcd CD database file
#
# Track frame offsets:
#	150
#	21974
#	47406
#	74082
#	92689
#	117021
#
# Disc length: 1895 seconds
#
# Revision: 0
# Processed by: cddbd v1.5.1PL0 Copyright (c) Steve Scherf et al.
# Submitted via: CDex 1.51
#
DISCID=49076506
DTITLE=monolith - whirlpool
DYEAR=2005
DGENRE=Rock
TTITLE0=Trace Paper
TTITLE1=Novelty Song
TTITLE2=Overflow
TTITLE3=群れ
TTITLE4=睡蓮
TTITLE5=Bundles
EXTD=YEAR: 2005
EXTT0=
EXTT1=
EXTT2=
EXTT3=
EXTT4=
EXTT5=
PLAYORDER=
